<svg id="Capa_1" enable-background="new 0 0 128 128" height="128" viewBox="0 0 512 512" width="128" xmlns="http://www.w3.org/2000/svg"><g><g><g><g><g><path d="m241.907 428.168c8.134 6.885 20.052 6.885 28.186 0l211.35-158.776 7.817-28.079c-1.079-2.519-2.698-4.648-4.867-6.429l-217.414-178.538c-6.381-5.24-15.577-5.24-21.958 0l-217.414 178.538c-2.161 1.775-3.787 3.92-4.866 6.427l7.816 27.872z" fill="#ffc250"/><g><path d="m419.169 478.171c9.555 0 17.3-7.745 17.3-17.3v-179.347l-166.376 126.729c-8.134 6.885-20.052 6.885-28.186 0l-219.167-166.942c-.948 2.163-1.454 4.523-1.454 6.942v218.844l11.956 11.074z" fill="#ffe07d"/></g><g><path d="m489.261 241.313-63.779 48.581v159.904c0 9.555-7.746 17.3-17.3 17.3h-386.896v27.602c0 9.555 7.745 17.3 17.3 17.3h434.829c9.555 0 17.3-7.745 17.3-17.3v-246.446c-.001-2.419-.507-4.778-1.454-6.941z" fill="#ffd064"/></g></g></g></g><g><g><path d="m397.926 91.508h-13.274c-9.799 0-17.743-7.944-17.743-17.743v-42.669l-13.451-28.525c-3.736-1.731-7.658-2.571-11.854-2.571h-245.951c-15.805 0-28.618 12.813-28.618 28.619v246.432l174.872 133.202c8.134 6.885 20.052 6.885 28.186 0l127.833-97.37z" fill="#f4fbff"/><path d="m379.732 91.508v198.805l-146.332 111.46 8.507 6.48c8.134 6.885 20.052 6.885 28.186 0l174.872-133.2v-171.691c0-4.129-.893-8.167-2.571-11.854z" fill="#e4f6ff"/><path d="m436.583 83.126-74.743-74.744c-2.447-2.447-5.292-4.405-8.382-5.811v71.194c0 9.799 7.944 17.743 17.743 17.743h71.194c-1.407-3.091-3.365-5.935-5.812-8.382z" fill="#e28086"/></g><g><g><g><path d="m216.816 196.409h-85.143c-9.217 0-16.688-7.472-16.688-16.688v-105.577c0-9.217 7.472-16.688 16.688-16.688h85.143c9.217 0 16.688 7.472 16.688 16.688v105.576c0 9.217-7.471 16.689-16.688 16.689z" fill="#bed8fb"/><path d="m174.244 143.102c-26.991 0-49.965 17.171-58.612 41.184 1.988 6.995 8.408 12.123 16.04 12.123h85.143c7.632 0 14.053-5.129 16.04-12.123-8.645-24.013-31.62-41.184-58.611-41.184z" fill="#4a80aa"/><circle cx="174.244" cy="122.782" fill="#365e7d" r="26.582"/></g><g><g><path d="m397.015 266.112h-281.382c-4.267 0-7.726-3.458-7.726-7.726 0-4.267 3.459-7.726 7.726-7.726h281.383c4.267 0 7.726 3.458 7.726 7.726-.001 4.267-3.459 7.726-7.727 7.726z" fill="#407093"/></g><g><path d="m329.324 316.158h-146c-4.267 0-7.726-3.458-7.726-7.726 0-4.267 3.459-7.726 7.726-7.726h146c4.267 0 7.726 3.458 7.726 7.726s-3.459 7.726-7.726 7.726z" fill="#407093"/></g></g></g><g><g><path d="m397.015 181.378h-103.395c-4.267 0-7.726-3.458-7.726-7.726 0-4.267 3.458-7.726 7.726-7.726h103.396c4.267 0 7.726 3.458 7.726 7.726-.001 4.267-3.459 7.726-7.727 7.726z" fill="#407093"/></g><g><path d="m397.015 142.07h-103.395c-4.267 0-7.726-3.458-7.726-7.726 0-4.267 3.458-7.726 7.726-7.726h103.396c4.267 0 7.726 3.458 7.726 7.726-.001 4.268-3.459 7.726-7.727 7.726z" fill="#407093"/></g></g></g></g></g></g></svg>