<?xml version="1.0" encoding="utf-8"?>
<!-- Generator: Adobe Illustrator 13.0.0, SVG Export Plug-In . SVG Version: 6.00 Build 14948)  -->
<!DOCTYPE svg PUBLIC "-//W3C//DTD SVG 1.0//EN" "http://www.w3.org/TR/2001/REC-SVG-20010904/DTD/svg10.dtd">
<svg version="1.0" id="Layer_1" xmlns="http://www.w3.org/2000/svg" xmlns:xlink="http://www.w3.org/1999/xlink" x="0px" y="0px"
	 width="500px" height="500px" viewBox="0 0 500 500" enable-background="new 0 0 500 500" xml:space="preserve">
<path fill="#231F20" d="M370.5,310.4c-1.8-0.4-3.6-0.9-5.4-1.5c-37.699-12.4-76.199-0.301-90,2.6C260.9,314.4,231.9,313,231.9,313
	c-3.801-0.1-34.3-6.9-34.3-6.9c-25.1-9.199-78.8,0-94.2,2.9c-2.5,0.5-4.3,2.6-4.5,5.1c-0.2,2.801-0.3,6.601-0.1,9.9
	c0.2,2.9,1.3,5.6,3.4,7.6c1.4,1.4,2.7,3.301,3.8,5.4c2.3,4.3,3.9,10.9,4.6,15.8c1.7,11.601,4.7,19.4,7.7,26.4
	c3.9,9.1,10.5,16.8,19.2,21.5c24.2,13.1,51.7,7.399,69-6.4c15.6-12.5,24.6-36.399,27.5-46.8c1.4-5.1,6.4-8.7,11.6-7.8
	c6.801,1.1,9.101,8.5,9.101,8.5s11.399,68.3,66.6,61.8c53-4.2,51.5-56.6,55.8-64.1c1.9-2.7,4.9-7.301,7-10.601
	c1.801-2.8,2.801-5.899,3-9.2c0.2-3.1,0.2-6.8-0.5-9C385.4,313.8,375.3,311.4,370.5,310.4z M220.4,351.3
	c-6.4,21.5-18.3,50.5-58.9,48.2c-47.3-1.8-43.9-67.2-43.9-67.2s-0.1-13.7,22.3-19.2c0,0,51.3-11.199,76.6,8.9
	C216.5,322.1,226.8,329.9,220.4,351.3z M323,403.4c-40.7,2.3-52.5-26.7-58.9-48.2C257.7,333.7,268,326,268,326
	c25.4-20.1,76.6-8.9,76.6-8.9c22.301,5.5,22.301,19.2,22.301,19.2S370.3,398.8,323,403.4z M407,143.5c-7.9,4.9-25,6.7-35.8,0.8
	c-5.101-2.8-5.4-9.8-1.101-13.5c10.5-9,22-34.9,16.2-30.3c-12.5,9.9-22.1,13.7-36.399,13.1c-7.4-0.3-14.601-2.4-21.2-5.8H328.6
	c-172.2-101.7-168.2,21-168.2,21C35.4,107.7,102.6,285,102.6,285c1.2-32.5,8.7-49.5,13.9-57.4c2.4-3.8,3.5-8.3,2.7-12.699
	c-1.7-8.7-0.7-24.4,21.5-38.601c19.2-12.3,51.3,1,74.6,14.2c17.101,9.7,38,9.1,54.9-0.9c41-24.2,75.8-16.4,75.8-16.4
	c26.5,5.7,26.8,32.8,25.2,46.1c-0.5,4.3,0.6,8.601,3,12.2c11.7,17,15.5,53.6,15.5,53.6L402,214c0.1-0.8,0.2-1.6,0.3-2.4
	c0.8-6,2-11.899,3.4-17.8C409.7,177.1,411.5,159.5,407,143.5z"/>
</svg>
